<mxfile host="app.diagrams.net" modified="2023-12-20T11:31:23.893Z" agent="Mozilla/5.0 (Windows NT 10.0; Win64; x64) AppleWebKit/537.36 (KHTML, like Gecko) Chrome/120.0.0.0 Safari/537.36" etag="x9L5N5HaHhyrpFqJASpY" version="22.1.11" type="github">
  <diagram id="C5RBs43oDa-KdzZeNtuy" name="Page-1">
    <mxGraphModel dx="1434" dy="738" grid="1" gridSize="10" guides="1" tooltips="1" connect="1" arrows="1" fold="1" page="1" pageScale="1" pageWidth="827" pageHeight="1169" math="0" shadow="0">
      <root>
        <mxCell id="WIyWlLk6GJQsqaUBKTNV-0" />
        <mxCell id="WIyWlLk6GJQsqaUBKTNV-1" parent="WIyWlLk6GJQsqaUBKTNV-0" />
        <mxCell id="Nd2S6fEniX1Sn0ad-wuY-13" style="edgeStyle=orthogonalEdgeStyle;rounded=0;orthogonalLoop=1;jettySize=auto;html=1;exitX=1;exitY=0.75;exitDx=0;exitDy=0;entryX=0.5;entryY=0;entryDx=0;entryDy=0;endArrow=none;endFill=0;startArrow=diamondThin;startFill=0;" parent="WIyWlLk6GJQsqaUBKTNV-1" source="zkfFHV4jXpPFQw0GAbJ--0" target="Nd2S6fEniX1Sn0ad-wuY-8" edge="1">
          <mxGeometry relative="1" as="geometry">
            <Array as="points">
              <mxPoint x="690" y="296" />
            </Array>
          </mxGeometry>
        </mxCell>
        <mxCell id="Nd2S6fEniX1Sn0ad-wuY-14" value="1" style="edgeLabel;html=1;align=center;verticalAlign=middle;resizable=0;points=[];" parent="Nd2S6fEniX1Sn0ad-wuY-13" vertex="1" connectable="0">
          <mxGeometry x="0.9213" relative="1" as="geometry">
            <mxPoint as="offset" />
          </mxGeometry>
        </mxCell>
        <mxCell id="Nd2S6fEniX1Sn0ad-wuY-16" value="1" style="edgeLabel;html=1;align=center;verticalAlign=middle;resizable=0;points=[];" parent="Nd2S6fEniX1Sn0ad-wuY-13" vertex="1" connectable="0">
          <mxGeometry x="-0.936" y="4" relative="1" as="geometry">
            <mxPoint y="1" as="offset" />
          </mxGeometry>
        </mxCell>
        <mxCell id="Nd2S6fEniX1Sn0ad-wuY-17" value="RELATES_TO_CUSTOMER_CREDIT" style="edgeLabel;html=1;align=center;verticalAlign=middle;resizable=0;points=[];" parent="Nd2S6fEniX1Sn0ad-wuY-13" vertex="1" connectable="0">
          <mxGeometry x="-0.1932" relative="1" as="geometry">
            <mxPoint as="offset" />
          </mxGeometry>
        </mxCell>
        <mxCell id="zkfFHV4jXpPFQw0GAbJ--0" value="ContrRiskAssmtFormRevision(风险评估)" style="swimlane;fontStyle=2;align=center;verticalAlign=top;childLayout=stackLayout;horizontal=1;startSize=26;horizontalStack=0;resizeParent=1;resizeLast=0;collapsible=1;marginBottom=0;rounded=0;shadow=0;strokeWidth=1;" parent="WIyWlLk6GJQsqaUBKTNV-1" vertex="1">
          <mxGeometry x="280" y="192" width="240" height="138" as="geometry">
            <mxRectangle x="230" y="140" width="160" height="26" as="alternateBounds" />
          </mxGeometry>
        </mxCell>
        <mxCell id="zkfFHV4jXpPFQw0GAbJ--17" value="FormItem(评估意见)" style="swimlane;fontStyle=0;align=center;verticalAlign=top;childLayout=stackLayout;horizontal=1;startSize=26;horizontalStack=0;resizeParent=1;resizeLast=0;collapsible=1;marginBottom=0;rounded=0;shadow=0;strokeWidth=1;" parent="WIyWlLk6GJQsqaUBKTNV-1" vertex="1">
          <mxGeometry x="830" y="190" width="290" height="140" as="geometry">
            <mxRectangle x="550" y="140" width="160" height="26" as="alternateBounds" />
          </mxGeometry>
        </mxCell>
        <mxCell id="Nd2S6fEniX1Sn0ad-wuY-18" value="+&amp;nbsp;type&lt;span style=&quot;background-color: initial;&quot;&gt;: RISK_ASSMT_OP_FORM_ITEM&lt;/span&gt;" style="text;strokeColor=none;fillColor=none;align=left;verticalAlign=top;spacingLeft=4;spacingRight=4;overflow=hidden;rotatable=0;points=[[0,0.5],[1,0.5]];portConstraint=eastwest;whiteSpace=wrap;html=1;" parent="zkfFHV4jXpPFQw0GAbJ--17" vertex="1">
          <mxGeometry y="26" width="290" height="26" as="geometry" />
        </mxCell>
        <mxCell id="zkfFHV4jXpPFQw0GAbJ--26" value="" style="endArrow=none;shadow=0;strokeWidth=1;rounded=0;endFill=0;edgeStyle=elbowEdgeStyle;elbow=vertical;startArrow=diamondThin;startFill=1;" parent="WIyWlLk6GJQsqaUBKTNV-1" source="zkfFHV4jXpPFQw0GAbJ--0" target="zkfFHV4jXpPFQw0GAbJ--17" edge="1">
          <mxGeometry x="0.5" y="41" relative="1" as="geometry">
            <mxPoint x="590" y="264" as="sourcePoint" />
            <mxPoint x="750" y="264" as="targetPoint" />
            <mxPoint x="-40" y="32" as="offset" />
          </mxGeometry>
        </mxCell>
        <mxCell id="zkfFHV4jXpPFQw0GAbJ--27" value="1" style="resizable=0;align=left;verticalAlign=bottom;labelBackgroundColor=none;fontSize=12;" parent="zkfFHV4jXpPFQw0GAbJ--26" connectable="0" vertex="1">
          <mxGeometry x="-1" relative="1" as="geometry">
            <mxPoint y="4" as="offset" />
          </mxGeometry>
        </mxCell>
        <mxCell id="zkfFHV4jXpPFQw0GAbJ--28" value="0...n" style="resizable=0;align=right;verticalAlign=bottom;labelBackgroundColor=none;fontSize=12;" parent="zkfFHV4jXpPFQw0GAbJ--26" connectable="0" vertex="1">
          <mxGeometry x="1" relative="1" as="geometry">
            <mxPoint x="-7" y="4" as="offset" />
          </mxGeometry>
        </mxCell>
        <mxCell id="Nd2S6fEniX1Sn0ad-wuY-1" value="RELATES_TO_RISK_ASSMT_OP" style="edgeLabel;html=1;align=center;verticalAlign=middle;resizable=0;points=[];" parent="zkfFHV4jXpPFQw0GAbJ--26" vertex="1" connectable="0">
          <mxGeometry x="-0.1368" relative="1" as="geometry">
            <mxPoint as="offset" />
          </mxGeometry>
        </mxCell>
        <mxCell id="Nd2S6fEniX1Sn0ad-wuY-2" value="TableRow(产品明细)" style="swimlane;fontStyle=0;align=center;verticalAlign=top;childLayout=stackLayout;horizontal=1;startSize=26;horizontalStack=0;resizeParent=1;resizeLast=0;collapsible=1;marginBottom=0;rounded=0;shadow=0;strokeWidth=1;" parent="WIyWlLk6GJQsqaUBKTNV-1" vertex="1">
          <mxGeometry x="280" y="442" width="240" height="90" as="geometry">
            <mxRectangle x="550" y="140" width="160" height="26" as="alternateBounds" />
          </mxGeometry>
        </mxCell>
        <mxCell id="Nd2S6fEniX1Sn0ad-wuY-4" value="" style="endArrow=none;shadow=0;strokeWidth=1;rounded=0;endFill=0;edgeStyle=elbowEdgeStyle;elbow=vertical;exitX=0.5;exitY=1;exitDx=0;exitDy=0;entryX=0.5;entryY=0;entryDx=0;entryDy=0;startArrow=diamondThin;startFill=1;" parent="WIyWlLk6GJQsqaUBKTNV-1" source="zkfFHV4jXpPFQw0GAbJ--0" target="Nd2S6fEniX1Sn0ad-wuY-2" edge="1">
          <mxGeometry x="0.5" y="41" relative="1" as="geometry">
            <mxPoint x="469" y="362" as="sourcePoint" />
            <mxPoint x="779" y="362" as="targetPoint" />
            <mxPoint x="-40" y="32" as="offset" />
          </mxGeometry>
        </mxCell>
        <mxCell id="Nd2S6fEniX1Sn0ad-wuY-5" value="1" style="resizable=0;align=left;verticalAlign=bottom;labelBackgroundColor=none;fontSize=12;" parent="Nd2S6fEniX1Sn0ad-wuY-4" connectable="0" vertex="1">
          <mxGeometry x="-1" relative="1" as="geometry">
            <mxPoint y="4" as="offset" />
          </mxGeometry>
        </mxCell>
        <mxCell id="Nd2S6fEniX1Sn0ad-wuY-6" value="1" style="resizable=0;align=right;verticalAlign=bottom;labelBackgroundColor=none;fontSize=12;" parent="Nd2S6fEniX1Sn0ad-wuY-4" connectable="0" vertex="1">
          <mxGeometry x="1" relative="1" as="geometry">
            <mxPoint x="-7" y="4" as="offset" />
          </mxGeometry>
        </mxCell>
        <mxCell id="Nd2S6fEniX1Sn0ad-wuY-7" value="RELATES_TO_CONTR_RISK_ASSMT_PROD_SPECS" style="edgeLabel;html=1;align=center;verticalAlign=middle;resizable=0;points=[];" parent="Nd2S6fEniX1Sn0ad-wuY-4" vertex="1" connectable="0">
          <mxGeometry x="-0.1368" relative="1" as="geometry">
            <mxPoint as="offset" />
          </mxGeometry>
        </mxCell>
        <mxCell id="Nd2S6fEniX1Sn0ad-wuY-8" value="FormItem(客户资信)" style="swimlane;fontStyle=0;align=center;verticalAlign=top;childLayout=stackLayout;horizontal=1;startSize=26;horizontalStack=0;resizeParent=1;resizeLast=0;collapsible=1;marginBottom=0;rounded=0;shadow=0;strokeWidth=1;" parent="WIyWlLk6GJQsqaUBKTNV-1" vertex="1">
          <mxGeometry x="570" y="392" width="290" height="90" as="geometry">
            <mxRectangle x="550" y="140" width="160" height="26" as="alternateBounds" />
          </mxGeometry>
        </mxCell>
        <mxCell id="Nd2S6fEniX1Sn0ad-wuY-10" value="+&amp;nbsp;type&lt;span style=&quot;background-color: initial;&quot;&gt;: CUSTOMER_CREDIT_FORM_ITEM&lt;/span&gt;" style="text;strokeColor=none;fillColor=none;align=left;verticalAlign=top;spacingLeft=4;spacingRight=4;overflow=hidden;rotatable=0;points=[[0,0.5],[1,0.5]];portConstraint=eastwest;whiteSpace=wrap;html=1;" parent="Nd2S6fEniX1Sn0ad-wuY-8" vertex="1">
          <mxGeometry y="26" width="290" height="26" as="geometry" />
        </mxCell>
        <mxCell id="hmhJZkGbO26I3XbIT4d7-0" value="TableRow(付款方式)" style="swimlane;fontStyle=0;align=center;verticalAlign=top;childLayout=stackLayout;horizontal=1;startSize=26;horizontalStack=0;resizeParent=1;resizeLast=0;collapsible=1;marginBottom=0;rounded=0;shadow=0;strokeWidth=1;" vertex="1" parent="WIyWlLk6GJQsqaUBKTNV-1">
          <mxGeometry x="20" y="452" width="240" height="90" as="geometry">
            <mxRectangle x="550" y="140" width="160" height="26" as="alternateBounds" />
          </mxGeometry>
        </mxCell>
        <mxCell id="hmhJZkGbO26I3XbIT4d7-6" value="CONTR_PAY_METH.ROW" style="text;html=1;align=center;verticalAlign=middle;resizable=0;points=[];autosize=1;strokeColor=none;fillColor=none;" vertex="1" parent="hmhJZkGbO26I3XbIT4d7-0">
          <mxGeometry y="26" width="240" height="30" as="geometry" />
        </mxCell>
        <mxCell id="hmhJZkGbO26I3XbIT4d7-1" value="" style="endArrow=none;shadow=0;strokeWidth=1;rounded=0;endFill=0;edgeStyle=elbowEdgeStyle;elbow=vertical;exitX=0;exitY=0.5;exitDx=0;exitDy=0;entryX=0.5;entryY=0;entryDx=0;entryDy=0;startArrow=diamondThin;startFill=1;" edge="1" parent="WIyWlLk6GJQsqaUBKTNV-1" target="hmhJZkGbO26I3XbIT4d7-0" source="zkfFHV4jXpPFQw0GAbJ--0">
          <mxGeometry x="0.5" y="41" relative="1" as="geometry">
            <mxPoint x="410" y="340" as="sourcePoint" />
            <mxPoint x="789" y="372" as="targetPoint" />
            <mxPoint x="-40" y="32" as="offset" />
            <Array as="points">
              <mxPoint x="230" y="261" />
            </Array>
          </mxGeometry>
        </mxCell>
        <mxCell id="hmhJZkGbO26I3XbIT4d7-2" value="1" style="resizable=0;align=left;verticalAlign=bottom;labelBackgroundColor=none;fontSize=12;" connectable="0" vertex="1" parent="hmhJZkGbO26I3XbIT4d7-1">
          <mxGeometry x="-1" relative="1" as="geometry">
            <mxPoint y="4" as="offset" />
          </mxGeometry>
        </mxCell>
        <mxCell id="hmhJZkGbO26I3XbIT4d7-3" value="1" style="resizable=0;align=right;verticalAlign=bottom;labelBackgroundColor=none;fontSize=12;" connectable="0" vertex="1" parent="hmhJZkGbO26I3XbIT4d7-1">
          <mxGeometry x="1" relative="1" as="geometry">
            <mxPoint x="-7" y="4" as="offset" />
          </mxGeometry>
        </mxCell>
        <mxCell id="hmhJZkGbO26I3XbIT4d7-5" value="RELATES_TO_CONTR_PAY_METH_SPECS" style="edgeLabel;html=1;align=center;verticalAlign=middle;resizable=0;points=[];" vertex="1" connectable="0" parent="hmhJZkGbO26I3XbIT4d7-1">
          <mxGeometry x="0.309" y="1" relative="1" as="geometry">
            <mxPoint as="offset" />
          </mxGeometry>
        </mxCell>
      </root>
    </mxGraphModel>
  </diagram>
</mxfile>
